<svg xmlns="http://www.w3.org/2000/svg" height="64" width="64">
	<circle fill="#f7931a" r="32" cx="32" cy="32" />
	<path fill="#FFF" d="M46.1 27.4c.6-4.2-2.6-6.5-7-8l1.4-5.8-3.5-.9-1.4 5.6-2.8-.6 1.4-5.7-3.5-.8-1.5 5.7-2.2-.5-4.8-1.2-1 3.7 2.6.6c1.4.4 1.7 1.3 1.6 2l-1.6 6.7h.3-.3l-2.3 9.2c-.2.4-.6 1-1.6.8l-2.6-.6-1.7 4 4.5 1.1 2.5.7-1.4 5.8 3.5.9 1.4-5.8 2.8.8-1.4 5.7 3.5.9 1.5-5.8c6 1 10.5.6 12.3-4.8 1.6-4.3 0-6.9-3.2-8.5 2.3-.5 4-2 4.5-5.2zm-8 11.3c-1.1 4.4-8.4 2-10.8 1.4l1.9-7.7c2.4.6 10 1.7 8.9 6.3zm1-11.3c-1 4-7 2-9 1.4l1.7-7c2 .5 8.4 1.4 7.4 5.6z" />
</svg>