<svg xmlns="http://www.w3.org/2000/svg" width="64" height="64">
	<circle cx="32" cy="32" r="32" fill="#ff4500" />
	<path fill="#fff" d="M53.3 31.5a4.5 4.5 0 00-7.8-3.3 22.8 22.8 0 00-12.3-4l2.1-9.7 6.9 1.4a3.3 3.3 0 10.3-1.5L35 12.7l-.6.1a.7.7 0 00-.3.6l-2.4 11a23 23 0 00-12.5 3.8 4.5 4.5 0 10-5 7.5l-.1 1.4c0 7 8.2 12.8 18.4 12.8 10 0 18.3-5.7 18.3-12.8l-.1-1.4a4.6 4.6 0 002.7-4.2zm-31.5 3.3a3.3 3.3 0 116.6 0 3.3 3.3 0 01-6.6 0zm18.3 8.6c-2.3 2.2-6.5 2.4-7.7 2.4-1.4 0-5.6-.2-7.9-2.4a1 1 0 010-1.3 1 1 0 011.3 0c1.4 1.4 4.4 2 6.6 2 2 0 5.2-.5 6.5-2a1 1 0 011.2 0c.3.4.3 1 0 1.3zm-.6-5.4a3.3 3.3 0 110-6.6 3.3 3.3 0 010 6.6z" />
</svg>